<?xml version="1.0" encoding="iso-8859-1"?>
<!-- Generator: Adobe Illustrator 19.0.0, SVG Export Plug-In . SVG Version: 6.00 Build 0)  -->
<svg version="1.1" id="Capa_1" xmlns="http://www.w3.org/2000/svg" xmlns:xlink="http://www.w3.org/1999/xlink" x="0px" y="0px"
	 viewBox="0 0 384 384" style="enable-background:new 0 0 384 384;" xml:space="preserve">
<circle style="fill:#E05B49;" cx="192" cy="192" r="192"/>
<path style="opacity:0.1;enable-background:new    ;" d="M381.034,225.46L269.782,114.208c-42.964-42.964-112.6-42.964-155.563,0
	c-42.964,42.964-42.964,112.599,0,155.564l111.259,111.259C304.675,367.097,367.107,304.66,381.034,225.46z"/>
<circle style="fill:#64798A;" cx="192" cy="192" r="110"/>
<circle style="fill:#FFFFFF;" cx="192" cy="192" r="87.264"/>
<g>
	<path style="fill:#EBF0F3;" d="M192,111.344c36.692,0,68.299,21.697,82.746,52.95c-11.584-34.608-44.24-59.558-82.746-59.558
		c-38.507,0-71.165,24.951-82.748,59.56C123.699,133.042,155.306,111.344,192,111.344z"/>
	<polygon style="fill:#EBF0F3;" points="192,177.972 192,177.972 125.817,192 192,206.028 192,206.028 258.183,192 	"/>
	<polygon style="fill:#EBF0F3;" points="206.028,192 206.028,192 192,125.817 177.972,192 177.972,192 192,258.183 	"/>
	<polygon style="fill:#EBF0F3;" points="198.075,185.925 198.075,185.925 163.34,163.34 185.925,198.075 185.925,198.075 
		220.66,220.66 	"/>
	<polygon style="fill:#EBF0F3;" points="198.075,198.075 198.075,198.075 220.66,163.34 185.926,185.926 185.926,185.926 
		163.34,220.66 	"/>
</g>
<polygon style="fill:#27A2DB;" points="181.122,181.123 181.122,181.123 140.68,243.32 192,192 "/>
<polygon style="fill:#E56353;" points="243.32,140.681 181.122,181.123 192,192 "/>
<polygon style="fill:#2D93BA;" points="192,192 140.68,243.32 202.877,202.878 202.878,202.878 "/>
<polygon style="fill:#D15241;" points="202.878,202.878 243.32,140.681 192,192 "/>
<ellipse style="fill:#EBF0F3;" cx="192" cy="192.001" rx="12.08" ry="12.08"/>
<path style="fill:#E1E6E9;" d="M199.492,186.689c1.506,3.382,0.896,7.476-1.879,10.251c-3.596,3.596-9.426,3.596-13.022,0
	c-0.374-0.374-0.685-0.783-0.981-1.2c0.447,1.002,1.057,1.95,1.878,2.772c3.596,3.596,9.426,3.596,13.022,0
	C201.733,195.289,202.044,190.284,199.492,186.689z"/>
<g>
</g>
<g>
</g>
<g>
</g>
<g>
</g>
<g>
</g>
<g>
</g>
<g>
</g>
<g>
</g>
<g>
</g>
<g>
</g>
<g>
</g>
<g>
</g>
<g>
</g>
<g>
</g>
<g>
</g>
</svg>
