<svg height="511pt" viewBox="0 0 511 511.95045" width="511pt" xmlns="http://www.w3.org/2000/svg"><path d="m502.175781 49.273438-30.890625 36.011718c-.953125 1.261719-2.261718 2.210938-3.753906 2.730469l-219.648438 74.066406 6.484376-10.835937 44.800781-74.496094 153.515625-54.699219 12.796875-4.523437c2.679687-.957032 5.660156-.507813 7.9375 1.195312l27.222656 18.6875c3.660156 2.875 4.34375 8.152344 1.535156 11.863282zm0 0" fill="#795548"/><path d="m476.574219 49.273438-30.890625 36.011718c-.953125 1.261719-2.257813 2.210938-3.753906 2.730469l-187.5625 63.230469 44.800781-74.496094 153.515625-54.699219 22.355468 15.359375c3.660157 2.875 4.34375 8.152344 1.535157 11.863282zm0 0" fill="#bfa885"/><path d="m299.167969 17.101562v469.25l-25.6875-9.644531-42.578125-15.957031v-426.582031c.027344-2.765625 1.394531-5.34375 3.664062-6.921875 2.273438-1.574219 5.167969-1.953125 7.769532-1.011719.664062.222656 1.296874.539063 1.875.9375l7 5.546875c3.125 2.050781 7.210937 1.878906 10.152343-.425781l12.117188-11.179688 11.691406-10.753906c2.589844-2.058594 6.132813-2.453125 9.113281-1.015625 2.980469 1.433594 4.878906 4.449219 4.882813 7.757812zm0 0" fill="#4e342e"/><path d="m273.480469 21.113281v455.59375l-42.578125-15.957031v-426.582031c1.761718-.160157 3.445312-.8125 4.863281-1.875l6.570313-6.058594c.664062.222656 1.296874.539063 1.875.9375l7 5.546875c3.125 2.050781 7.210937 1.878906 10.152343-.425781zm0 0" fill="#795548"/><path d="m230.867188 76.75h-184.203126c-2.257812 0-4.421874.898438-6.023437 2.492188l-29.183594 25.597656c-1.609375 1.605468-2.515625 3.78125-2.515625 6.050781 0 2.273437.90625 4.449219 2.515625 6.050781l29.183594 25.601563c1.601563 1.589843 3.769531 2.476562 6.023437 2.472656h184.203126" fill="#ffe0b2"/><path d="m449.269531 243.832031-17.921875 10.667969c-2.578125 1.777344-5.933594 1.972656-8.703125.511719l-16.980469-9.046875-140.628906-75.347656v-68.265626l159.65625 81.664063c1.613282.757813 2.910156 2.054687 3.671875 3.667969l23.550781 45.652344c1.796876 3.675781.675782 8.109374-2.644531 10.496093zm0 0" fill="#795548"/><path d="m423.582031 235.300781-17.917969 10.664063-140.628906-75.347656v-63.660157l134.058594 68.523438c1.570312.789062 2.832031 2.082031 3.582031 3.667969l23.636719 45.65625c1.71875 3.699218.574219 8.097656-2.730469 10.496093zm0 0" fill="#bfa885"/><g fill="#558b30"><path d="m257.097656 420.472656c-6.625 7.167969-12.566406 14.9375-17.75 23.210938-9-37.984375-30.152344-71.992188-60.246094-96.855469-7.085937-11.230469-15.351562-21.671875-24.660156-31.144531 0 0 73.386719 28.414062 102.65625 104.789062zm0 0"/><path d="m333.472656 451.960938c10.480469-4.722657 21.722656-7.527344 33.191406-8.277344 0 0-36.519531 34.558594-42.066406 53.929687-1.074218 3.511719-4.351562 5.882813-8.023437 5.804688h-24.917969c3.6875.058593 6.976562-2.296875 8.109375-5.804688 3.753906-13.480469 22.527344-34.21875 33.707031-45.652343zm0 0"/><path d="m383.734375 366.882812s-60.417969 54.359376-79.53125 86.871094c-10.539063 4.5625-20.796875 9.75-30.722656 15.53125 0-20.140625 52.824219-71.9375 75.351562-93.1875h.085938c11.21875-4.378906 22.898437-7.472656 34.816406-9.214844zm0 0"/></g><path d="m298.398438 469.285156c11.265624-6.597656 22.988281-12.386718 35.074218-17.324218-11.179687 11.433593-29.953125 32.171874-33.707031 45.652343-1.132813 3.507813-4.421875 5.863281-8.109375 5.804688h-78.335938c-3.761718-.011719-7.078124-2.464844-8.191406-6.058594-8.171875-29.234375-30.28125-52.527344-59.050781-62.210937 4.503906-1.035157 9.0625-1.804688 13.65625-2.300782 9.136719-1.039062 18.371094-.898437 27.476563.425782 9.609374 1.167968 18.769531 4.75 26.621093 10.410156-4.960937-34.289063-16.773437-67.226563-34.730469-96.855469 30.09375 24.863281 51.246094 58.871094 60.246094 96.855469 5.183594-8.273438 11.125-16.042969 17.75-23.210938 2.984375 7.539063 5.382813 15.300782 7.167969 23.210938 19.964844-31.238282 49.695313-54.996094 84.566406-67.585938-22.527343 21.25-75.351562 73.046875-75.351562 93.1875 9.925781-5.78125 20.183593-10.96875 30.722656-15.53125-3.207031 4.609375-5.203125 9.949219-5.804687 15.53125zm0 0" fill="#8bc34a"/><path d="m230.875 153.550781h-184.210938c-4.523437.011719-8.863281-1.785156-12.054687-4.992187l-28.777344-25.207032c-3.347656-3.179687-5.277343-7.574218-5.355469-12.191406-.074218-4.617187 1.707032-9.070312 4.949219-12.359375l29.59375-25.96875c3.125-3.007812 7.308594-4.664062 11.644531-4.617187h184.210938c4.710938 0 8.535156 3.824218 8.535156 8.535156s-3.824218 8.535156-8.535156 8.535156h-184.210938l-29.582031 25.964844 29.183594 24.859375 184.609375.375c4.710938 0 8.535156 3.820313 8.535156 8.53125 0 4.714844-3.824218 8.535156-8.535156 8.535156zm0 0"/><path d="m333.035156 142.679688-5.476562-16.164063 137.207031-46.566406 30.882813-36.199219-27.042969-17.917969-166.605469 58.957031-5.71875-16.078124 166.402344-59.210938c5.371094-1.90625 11.339844-.992188 15.898437 2.429688l26.894531 18.476562c3.65625 2.730469 6.074219 6.804688 6.722657 11.324219.648437 4.515625-.527344 9.105469-3.265625 12.757812l-31.105469 36.375c-1.957031 2.394531-4.539063 4.195313-7.457031 5.214844zm0 0"/><path d="m426.730469 264.484375c-2.796875 0-5.550781-.679687-8.027344-1.980469l-157.722656-84.359375c-2.773438-1.488281-4.507813-4.378906-4.503907-7.527343v-68.265626c-.003906-2.972656 1.542969-5.730468 4.074219-7.28125 2.535157-1.554687 5.695313-1.675781 8.339844-.324218l159.71875 81.621094c3.191406 1.660156 5.777344 4.289062 7.382813 7.511718l23.515624 45.617188c3.679688 7.433594 1.480469 16.429687-5.203124 21.332031l-18.621094 11.09375c-2.664063 1.71875-5.78125 2.609375-8.953125 2.5625zm-153.1875-98.988281 153.15625 81.921875 17.492187-10.496094-23.414062-45.363281-147.234375-75.257813zm0 0"/><path d="m290.609375 187.683594h17.066406v213.332031h-17.066406zm0 0"/><path d="m239.410156 375.417969h-17.070312v-341.15625c-.019532-6.328125 3.464844-12.144531 9.046875-15.117188 5.585937-2.972656 12.359375-2.613281 17.597656.9375l7.03125 5.535157 23.441406-21.511719c5.148438-4.386719 12.394531-5.347657 18.507813-2.449219 5.957031 2.816406 9.742187 8.832031 9.710937 15.421875v102.339844h-17.066406v-102.351563l-23.449219 21.488282c-5.839844 5.007812-14.296875 5.511718-20.6875 1.230468l-7.550781-5.976562zm0 0"/><path d="m111.410156 119.417969h-42.667968c-4.714844 0-8.535157-3.820313-8.535157-8.535157 0-4.710937 3.820313-8.53125 8.535157-8.53125h42.667968c4.710938 0 8.53125 3.820313 8.53125 8.53125 0 4.714844-3.820312 8.535157-8.53125 8.535157zm0 0"/><path d="m162.609375 119.417969h-17.066406c-4.714844 0-8.535157-3.820313-8.535157-8.535157 0-4.710937 3.820313-8.53125 8.535157-8.53125h17.066406c4.710937 0 8.53125 3.820313 8.53125 8.53125 0 4.714844-3.820313 8.535157-8.53125 8.535157zm0 0"/><path d="m393.007812 85.285156c-4.1875.003906-7.765624-3.03125-8.4375-7.164062-.671874-4.136719 1.757813-8.148438 5.734376-9.46875l51.199218-17.066406c4.476563-1.492188 9.316406.929687 10.808594 5.40625 1.488281 4.476562-.929688 9.316406-5.40625 10.804687l-51.203125 17.066406c-.867187.285157-1.78125.425781-2.695313.421875zm0 0"/><path d="m393 213.285156c-1.320312 0-2.625-.308594-3.804688-.898437l-17.066406-8.53125c-4.21875-2.109375-5.929687-7.234375-3.824218-11.453125 2.105468-4.21875 7.234374-5.929688 11.453124-3.824219l17.066407 8.535156c3.546875 1.765625 5.40625 5.742188 4.496093 9.601563-.910156 3.855468-4.359374 6.578125-8.320312 6.570312zm0 0"/><path d="m316.558594 511.949219h-57.328125c-4.710938 0-8.53125-3.820313-8.53125-8.53125 0-4.714844 3.820312-8.535157 8.53125-8.535157h57.328125c5.683594-13.644531 13.914062-26.078124 24.25-36.640624-13.152344 5.078124-25.871094 11.214843-38.03125 18.355468-2.636719 1.582032-5.921875 1.625-8.597656.113282-2.675782-1.515626-4.332032-4.351563-4.332032-7.425782 0-19.945312 36.0625-58.882812 63.53125-85.675781-33.726562 11.828125-62.550781 34.558594-81.917968 64.597656-2.5 4.003907-7.773438 5.226563-11.777344 2.730469-4.007813-2.5-5.230469-7.769531-2.730469-11.777344 28.46875-43.640625 74.234375-73.027344 125.765625-80.757812 3.679688-.40625 7.203125 1.609375 8.722656 4.988281 1.515625 3.382813.675782 7.355469-2.078125 9.832031-26.464843 23.316406-50.761719 48.980469-72.59375 76.679688 15.496094-8.148438 32.445313-13.160156 49.878907-14.753906 3.492187.003906 6.632812 2.132812 7.921874 5.378906 1.292969 3.246094.476563 6.949218-2.058593 9.351562-13.449219 12.75-36.121094 37.613282-39.671875 50.054688-2.160156 7.175781-8.789063 12.070312-16.28125 12.015625zm0 0"/><path d="m264.25 511.949219h-50.902344c-7.582031.007812-14.261718-4.992188-16.394531-12.269531-7.476563-26.453126-27.476563-47.539063-53.492187-56.40625-3.621094-1.164063-6.035157-4.582032-5.917969-8.386719.117187-3.800781 2.734375-7.066407 6.421875-8.003907 19.238281-4.625 39.34375-4.203124 58.375 1.21875-5.453125-24.695312-19.78125-71.980468-53.972656-106.402343-2.851563-2.855469-3.308594-7.320313-1.101563-10.695313 2.207031-3.378906 6.480469-4.746094 10.238281-3.28125 3.773438 1.46875 92.664063 36.890625 115.066406 134.039063.683594 2.972656-.265624 6.085937-2.5 8.167969-2.230468 2.078124-5.402343 2.8125-8.320312 1.917968-2.914062-.890625-5.136719-3.273437-5.820312-6.246094-9.867188-40.578124-33.984376-76.261718-67.960938-100.546874 17.796875 29.96875 29.460938 63.175781 34.3125 97.691406.355469 3.382812-1.335938 6.65625-4.304688 8.324218-2.964843 1.667969-6.640624 1.414063-9.347656-.644531-9.699218-6.488281-21.136718-9.878906-32.800781-9.71875 18.027344 13.566407 31.195313 32.589844 37.546875 54.246094l50.875-.070313c4.710938 0 8.53125 3.820313 8.53125 8.535157 0 4.710937-3.820312 8.53125-8.53125 8.53125zm0 0"/></svg>