<?xml version="1.0" encoding="iso-8859-1"?>
<!-- Generator: Adobe Illustrator 19.0.0, SVG Export Plug-In . SVG Version: 6.00 Build 0)  -->
<svg version="1.1" id="Capa_1" xmlns="http://www.w3.org/2000/svg" xmlns:xlink="http://www.w3.org/1999/xlink" x="0px" y="0px"
	 viewBox="0 0 512 512" style="enable-background:new 0 0 512 512;" xml:space="preserve">
<circle style="fill:#00ABE9;" cx="256" cy="256" r="256"/>
<path style="fill:#0080AF;" d="M512,256c0-3.042-0.073-6.067-0.178-9.084L429,164.094l-102.522-40.547l-40-40.547L124.29,204.641
	l21,20.273L83,265.461l142.658,142.558V429l78.464,78.464C422.499,484.946,512,380.934,512,256z"/>
<path style="fill:#5A5A5A;" d="M225.658,83v346h60.82V83H225.658z"/>
<rect x="256.07" y="83" style="fill:#444444;" width="30.41" height="346"/>
<g>
	<path style="fill:#FFD400;" d="M381.357,123.547H124.29v81.094h257.067L429,164.094L381.357,123.547z"/>
	<path style="fill:#FFD400;" d="M130.778,224.914L83,265.461l47.778,40.547h257.067v-81.094H130.778z"/>
</g>
<g>
	<rect x="256.07" y="224.91" style="fill:#FF9F00;" width="131.78" height="81.09"/>
	<polygon style="fill:#FF9F00;" points="381.357,204.641 256.068,204.641 256.068,123.547 381.357,123.547 429,164.094 	"/>
</g>
<g>
</g>
<g>
</g>
<g>
</g>
<g>
</g>
<g>
</g>
<g>
</g>
<g>
</g>
<g>
</g>
<g>
</g>
<g>
</g>
<g>
</g>
<g>
</g>
<g>
</g>
<g>
</g>
<g>
</g>
</svg>
