<?xml version="1.0" encoding="iso-8859-1"?>
<!-- Generator: Adobe Illustrator 19.0.0, SVG Export Plug-In . SVG Version: 6.00 Build 0)  -->
<svg version="1.1" id="Capa_1" xmlns="http://www.w3.org/2000/svg" xmlns:xlink="http://www.w3.org/1999/xlink" x="0px" y="0px"
	 viewBox="0 0 512 512" style="enable-background:new 0 0 512 512;" xml:space="preserve">
<path style="fill:#EDBF77;" d="M22.645,98.332C15.263,100.409,0,107.865,0,134.045v304.051c0,0,0,25.616,26.558,20.305
	l101.522-20.305c0-27.508,0-60.678,0-86.315c0-25.645,0-246.552,0-274.537C117.235,79.414,36.608,95.539,22.645,98.332z"/>
<path style="fill:#E0B57C;" d="M25.778,435.694V126.718c0-17.497,6.602-26.763,13.222-31.658c-3.551,0.71-10.259,2.052-16.355,3.271
	C15.263,100.409,0,107.865,0,134.045v304.051c0,0,0,25.616,26.558,20.305l12.015-2.403
	C25.783,451.683,25.778,435.694,25.778,435.694z"/>
<g>
	<polygon style="fill:#F2D59F;" points="128.08,77.245 128.08,351.782 128.08,351.782 128.08,382.41 128.08,382.41 128.08,438.097 
		256.16,463.713 256.16,102.861 	"/>
	<path style="fill:#F2D59F;" d="M489.355,98.332c7.382,2.077,22.645,9.533,22.645,35.714v304.051c0,0,0,25.616-26.558,20.305
		L383.92,438.097c0-47.494,0-329.856,0-360.852C394.622,79.385,475.42,95.545,489.355,98.332z"/>
</g>
<polygon style="fill:#EDBF77;" points="383.92,77.245 383.92,351.782 383.92,351.782 383.92,382.41 383.92,382.41 383.92,438.097 
	255.84,463.713 255.84,102.861 "/>
<path style="fill:#EAEAEA;" d="M130.47,358.726c-3.836-1.877-5.423-6.508-3.547-10.342c7.153-14.621,20.081-34.881,41.042-48.378
	c25.851-16.649,56.439-18.517,90.917-5.554c28.578,10.746,53.752,11.299,74.821,1.648c17.878-8.189,29.418-22.214,35.951-32.539
	c2.283-3.609,7.059-4.682,10.668-2.399c3.608,2.283,4.682,7.06,2.398,10.668c-26.225,41.441-71.363,58.873-129.281,37.096
	c-66.139-24.869-98.952,18.305-112.626,46.253C138.931,359.027,134.294,360.598,130.47,358.726z"/>
<circle style="fill:#80AD1F;" cx="128.08" cy="367.1" r="15.314"/>
<circle style="fill:#E83D3D;" cx="384.24" cy="254.05" r="15.314"/>
<path style="fill:#7A9E18;" d="M135.812,353.893c-2.271-1.333-4.908-2.111-7.732-2.111c-8.458,0-15.314,6.856-15.314,15.314
	c0,11.815,12.858,19.183,23.046,13.203C125.724,374.377,125.693,359.833,135.812,353.893z"/>
<path style="fill:#BC3B3B;" d="M391.972,240.848c-2.271-1.333-4.908-2.111-7.732-2.111c-8.458,0-15.314,6.857-15.314,15.314
	c0,11.815,12.858,19.183,23.046,13.203C381.884,261.333,381.853,246.788,391.972,240.848z"/>
<path style="fill:#E83D3D;" d="M384.24,48.287c-59.108,1.18-92.127,71.314-52.483,117.456l38.153,44.408
	c0,0,14.312,16.699,28.661,0.001l38.155-44.409C476.329,119.646,443.387,49.468,384.24,48.287z M384.24,154.599
	c-19.488,0-35.287-15.799-35.287-35.287c0-19.489,15.799-35.287,35.287-35.287c19.489,0,35.287,15.799,35.287,35.287
	C419.528,138.801,403.729,154.599,384.24,154.599z"/>
<path style="fill:#BC3B3B;" d="M332.468,166.571l37.442,43.58c0,0,14.312,16.699,28.661,0.001
	c37.962-44.565,39.615-45.196,44.575-53.134C417.652,194.613,364.069,199.32,332.468,166.571z"/>
<g>
</g>
<g>
</g>
<g>
</g>
<g>
</g>
<g>
</g>
<g>
</g>
<g>
</g>
<g>
</g>
<g>
</g>
<g>
</g>
<g>
</g>
<g>
</g>
<g>
</g>
<g>
</g>
<g>
</g>
</svg>
