<?xml version="1.0" encoding="iso-8859-1"?>
<!-- Generator: Adobe Illustrator 19.0.0, SVG Export Plug-In . SVG Version: 6.00 Build 0)  -->
<svg version="1.1" id="Layer_1" xmlns="http://www.w3.org/2000/svg" xmlns:xlink="http://www.w3.org/1999/xlink" x="0px" y="0px"
	 viewBox="0 0 512 512" style="enable-background:new 0 0 512 512;" xml:space="preserve">
<circle style="fill:#FF314F;" cx="256" cy="256" r="256"/>
<path style="fill:#A30F44;" d="M512,256c0-12.909-0.965-25.591-2.81-37.988L401.589,110.411l-20.502-5.356l-176.228,176.23
	l-17.239-17.239l-82.503,77.402L274.97,511.3C407.495,501.593,512,391.004,512,256z"/>
<path style="fill:#FFFFFF;" d="M125.371,276.527c-16.539,16.539-24.078,38.667-22.621,60.306c0.384,5.71,7.394,8.252,11.44,4.206
	l41.86-41.86l47.309,9.463l9.463,47.309l-41.86,41.86c-4.108,4.108-1.405,11.076,4.393,11.454
	c22.294,1.446,45.089-6.651,61.74-24.302c22.245-23.581,26.784-58.039,13.902-86.109l150.594-150.594
	c10.452-10.452,10.452-27.396,0-37.848c-10.452-10.452-27.396-10.452-37.848,0L213.207,260.944
	C184.41,247.58,149.125,252.773,125.371,276.527z M389.834,122.166c5.225,5.225,5.225,13.698,0,18.923
	c-5.225,5.225-13.698,5.225-18.923,0c-5.225-5.225-5.225-13.698,0-18.923C376.136,116.941,384.607,116.941,389.834,122.166z"/>
<path style="fill:#D0D1D3;" d="M401.589,110.411c-0.097-0.097-0.203-0.178-0.302-0.272l-11.755,11.755
	c0.098,0.093,0.205,0.176,0.302,0.272c5.225,5.225,5.225,13.698,0,18.923c-5.225,5.225-13.698,5.225-18.923,0
	c-0.097-0.097-0.179-0.202-0.272-0.302L202.883,308.543l0.479,0.097l9.463,47.309l-41.86,41.86
	c-4.108,4.108-1.405,11.076,4.393,11.454c22.294,1.446,45.089-6.651,61.74-24.302c22.245-23.581,26.784-58.039,13.902-86.109
	l150.594-150.593C412.041,137.807,412.041,120.861,401.589,110.411z"/>
<g>
</g>
<g>
</g>
<g>
</g>
<g>
</g>
<g>
</g>
<g>
</g>
<g>
</g>
<g>
</g>
<g>
</g>
<g>
</g>
<g>
</g>
<g>
</g>
<g>
</g>
<g>
</g>
<g>
</g>
</svg>
